<?xml version="1.0" encoding="UTF-8"?>
<svg width="1401px" height="981px" viewBox="0 0 1401 981" version="1.1" xmlns="http://www.w3.org/2000/svg" xmlns:xlink="http://www.w3.org/1999/xlink">
    <title>Group</title>
    <g id="Page-1" stroke="none" stroke-width="1" fill="none" fill-rule="evenodd">
        <g id="T_03">
            <g id="Group" transform="translate(0.060000, 0.000000)">
                <polygon id="Fill-1" fill="#FCE671" points="0 980 1399.92 980 1399.92 0 0 0"></polygon>
                <path d="M189.133,723.606 L73.342,723.606 C71.435,723.606 69.889,721.289 69.889,718.43 L69.889,700.112 C69.889,697.254 71.435,694.936 73.342,694.936 L189.133,694.936 C191.04,694.936 192.586,697.254 192.586,700.112 L192.586,718.43 C192.586,721.289 191.04,723.606 189.133,723.606" id="Fill-3" fill="#FFFFFE"></path>
                <path d="M73.342,695.655 C71.86,695.655 70.608,697.696 70.608,700.112 L70.608,718.431 C70.608,720.847 71.86,722.888 73.342,722.888 L189.133,722.888 C190.615,722.888 191.867,720.847 191.867,718.431 L191.867,700.112 C191.867,697.696 190.615,695.655 189.133,695.655 L73.342,695.655 Z M189.133,724.325 L73.342,724.325 C71.003,724.325 69.17,721.736 69.17,718.431 L69.17,700.112 C69.17,696.807 71.003,694.218 73.342,694.218 L189.133,694.218 C191.472,694.218 193.305,696.807 193.305,700.112 L193.305,718.431 C193.305,721.736 191.472,724.325 189.133,724.325 L189.133,724.325 Z" id="Fill-4" fill="#923A2A"></path>
                <polygon id="Fill-5" fill="#923A2A" points="83.535 712.098 178.94 712.098 178.94 706.018 83.535 706.018"></polygon>
                <polygon id="Fill-6" fill="#CB4438" points="44.508 789.672 217.967 789.672 217.967 761.653 44.508 761.653"></polygon>
                <polygon id="Fill-7" fill="#2592C4" points="45.682 817.335 217.967 817.335 217.967 811.33 45.682 811.33"></polygon>
                <polygon id="Fill-8" fill="#2592C4" points="45.682 845.415 217.967 845.415 217.967 839.41 45.682 839.41"></polygon>
                <polygon id="Fill-9" fill="#2592C4" points="45.682 872.818 217.967 872.818 217.967 866.812 45.682 866.812"></polygon>
                <polygon id="Fill-10" fill="#91C458" points="1186.96 780.715 1370.13 780.715 1370.13 752.695 1186.96 752.695"></polygon>
                <path d="M1187.86,779.813 L1369.22,779.813 L1369.22,753.597 L1187.86,753.597 L1187.86,779.813 Z M1370.13,781.616 L1186.96,781.616 C1186.46,781.616 1186.05,781.213 1186.05,780.715 L1186.05,752.695 C1186.05,752.197 1186.46,751.794 1186.96,751.794 L1370.13,751.794 C1370.62,751.794 1371.03,752.197 1371.03,752.695 L1371.03,780.715 C1371.03,781.213 1370.62,781.616 1370.13,781.616 L1370.13,781.616 Z" id="Fill-11" fill="#4C9C4E"></path>
                <polygon id="Fill-12" fill="#CB4438" points="1188.2 808.378 1370.13 808.378 1370.13 802.372 1188.2 802.372"></polygon>
                <polygon id="Fill-13" fill="#CB4438" points="1188.2 836.458 1370.13 836.458 1370.13 830.452 1188.2 830.452"></polygon>
                <polygon id="Fill-14" fill="#CB4438" points="1188.2 863.86 1370.13 863.86 1370.13 857.854 1188.2 857.854"></polygon>
                <polygon id="Fill-15" fill="#EFA246" points="963.256 43.826 1098.09 43.826 1098.09 38.543 963.256 38.543"></polygon>
                <polygon id="Fill-16" fill="#EFA246" points="963.256 65.37 1044.98 65.37 1044.98 60.087 963.256 60.087"></polygon>
                <polygon id="Fill-17" fill="#EFA246" points="262.078 250.008 375.071 250.008 375.071 245.235 262.078 245.235"></polygon>
                <polygon id="Fill-18" fill="#EFA246" points="1021.47 383.125 1050.17 383.125 1050.17 378.352 1021.47 378.352"></polygon>
                <polygon id="Fill-19" fill="#EFA246" points="262.078 269.47 343.798 269.47 343.798 264.698 262.078 264.698"></polygon>
                <polygon id="Fill-20" fill="#EFA246" points="160.862 36.482 228.276 36.482 228.276 31.709 160.862 31.709"></polygon>
                <polygon id="Fill-21" fill="#EFA246" points="160.862 55.943 280.406 55.943 280.406 51.171 160.862 51.171"></polygon>
                <polygon id="Fill-22" fill="#EFA246" points="253.905 36.482 306.906 36.482 306.906 31.709 253.905 31.709"></polygon>
                <polygon id="Fill-23" fill="#EFA246" points="350.434 55.943 403.436 55.943 403.436 51.171 350.434 51.171"></polygon>
                <polygon id="Fill-24" fill="#EFA246" points="1075.72 419.371 1104.42 419.371 1104.42 414.598 1075.72 414.598"></polygon>
                <polygon id="Fill-25" fill="#EFA246" points="1090.07 439.493 1104.42 439.493 1104.42 434.721 1090.07 434.721"></polygon>
                <polygon id="Fill-26" fill="#EFA246" points="217.967 561.019 254.919 561.019 254.919 556.247 217.967 556.247"></polygon>
                <polygon id="Fill-27" fill="#EFA246" points="287.816 597.265 324.767 597.265 324.767 592.493 287.816 592.493"></polygon>
                <polygon id="Fill-28" fill="#EFA246" points="306.291 617.388 324.767 617.388 324.767 612.615 306.291 612.615"></polygon>
                <polyline id="Fill-29" fill="#E15C34" points="1256.06 449.277 1240.59 453.766 1240.48 465.769 1255.91 465.909 1256.06 449.277"></polyline>
                <path d="M1241.49,464.778 L1254.92,464.9 L1255.05,450.612 L1241.59,454.519 L1241.49,464.778 Z M1255.91,466.909 C1255.91,466.909 1255.91,466.909 1255.9,466.909 L1240.48,466.769 C1239.92,466.764 1239.48,466.313 1239.48,465.76 L1239.59,453.757 C1239.6,453.315 1239.89,452.928 1240.31,452.805 L1255.78,448.316 C1256.08,448.229 1256.41,448.289 1256.67,448.48 C1256.92,448.671 1257.06,448.97 1257.06,449.286 L1256.91,465.918 C1256.91,466.183 1256.8,466.437 1256.61,466.622 C1256.42,466.806 1256.17,466.909 1255.91,466.909 L1255.91,466.909 Z" id="Fill-30" fill="#AE392B"></path>
                <polyline id="Fill-31" fill="#E15C34" points="1247.61 521.76 1217.69 521.489 1216.18 688.164 1246.1 688.435 1276.18 688.707 1277.69 522.032 1247.61 521.76"></polyline>
                <path d="M1217.19,687.173 L1275.19,687.698 L1276.68,523.023 L1218.68,522.498 L1217.19,687.173 Z M1276.18,689.707 C1276.18,689.707 1276.18,689.707 1276.17,689.707 L1216.17,689.164 C1215.91,689.162 1215.65,689.054 1215.47,688.865 C1215.28,688.676 1215.18,688.42 1215.18,688.155 L1216.69,521.48 C1216.7,520.928 1217.15,520.436 1217.7,520.489 L1277.7,521.032 C1277.97,521.035 1278.22,521.143 1278.41,521.331 C1278.59,521.521 1278.69,521.776 1278.69,522.041 L1277.18,688.716 C1277.18,689.266 1276.73,689.707 1276.18,689.707 L1276.18,689.707 Z" id="Fill-32" fill="#AE392B"></path>
                <polyline id="Fill-33" fill="#AE392B" points="1246.1 688.435 1219.49 688.194 1219.43 694.62 1246.04 694.861 1272.82 695.103 1272.87 688.678 1246.1 688.435"></polyline>
                <path d="M1219.94,694.125 L1272.32,694.599 L1272.37,689.173 L1219.98,688.699 L1219.94,694.125 Z M1273.31,695.608 L1218.93,695.115 L1218.99,687.689 L1273.38,688.183 L1273.31,695.608 L1273.31,695.608 Z" id="Fill-34" fill="#862E25"></path>
                <polyline id="Fill-35" fill="#AE392B" points="1257.12 485.19 1257.17 465.92 1248.12 465.838 1239.22 465.758 1238.93 485.026 1217.8 509.826 1217.69 521.489 1247.61 521.76 1277.69 522.032 1277.8 510.37 1257.12 485.19"></polyline>
                <path d="M1218.2,520.994 L1277.2,521.527 L1277.29,510.547 L1256.62,485.369 L1256.67,466.416 L1239.72,466.262 L1239.43,485.213 L1218.29,510.013 L1218.2,520.994 Z M1278.19,522.537 L1217.19,521.984 L1217.3,509.64 L1238.43,484.838 L1238.73,465.253 L1257.67,465.424 L1257.62,485.012 L1278.3,510.193 L1278.19,522.537 L1278.19,522.537 Z" id="Fill-36" fill="#862E25"></path>
                <polyline id="Fill-37" fill="#E15C34" points="1328.03 418.658 1297.34 418.263 1296.25 502.759 1326.94 503.153 1356.64 503.535 1357.73 419.04 1328.03 418.658"></polyline>
                <path d="M1297.26,501.771 L1355.65,502.522 L1356.71,420.027 L1298.32,419.275 L1297.26,501.771 Z M1356.64,504.535 L1356.63,504.535 L1296.24,503.759 C1295.97,503.755 1295.72,503.646 1295.53,503.457 C1295.35,503.267 1295.25,503.011 1295.25,502.746 L1296.33,418.25 C1296.34,417.985 1296.45,417.731 1296.64,417.546 C1296.83,417.361 1297.1,417.26 1297.35,417.262935 L1357.74,418.04 C1358.29,418.047 1358.73,418.5 1358.73,419.053 L1357.64,503.548 C1357.63,504.096 1357.19,504.535 1356.64,504.535 L1356.64,504.535 Z" id="Fill-38" fill="#AE392B"></path>
                <polyline id="Fill-39" fill="#AE392B" points="1328.09 413.84 1304.19 413.532 1303.17 492.567 1327.07 492.875 1349.98 493.17 1351 414.135 1328.09 413.84"></polyline>
                <path d="M1303.68,492.074 L1349.49,492.663 L1350.49,414.628 L1304.68,414.039 L1303.68,492.074 Z M1350.48,493.677 L1302.66,493.061 L1302.67,492.561 L1303.69,413.026 L1351.51,413.641 L1351.5,414.141 L1350.48,493.677 L1350.48,493.677 Z" id="Fill-40" fill="#862E25"></path>
                <polyline id="Fill-41" fill="#535453" points="1145.65 705.786 1149.39 694.606 1141.56 694.876 1145.65 705.786"></polyline>
                <path d="M1142.27,695.352 L1145.62,704.291 L1148.69,695.131 L1142.27,695.352 Z M1145.67,707.281 L1140.85,694.4 L1150.1,694.082 L1145.67,707.281 L1145.67,707.281 Z" id="Fill-42" fill="#535453"></path>
                <path d="M1141.56,694.876 L1149.39,694.606 L1156.04,674.759 C1155.97,663.657 1155.96,662.133 1155.96,661.969 L1144.98,662.038 L1133.99,662.107 C1133.99,662.224 1134,663.538 1134.07,674.897 L1141.56,694.876" id="Fill-43" fill="#FFFFFE"></path>
                <path d="M1135.14,674.699 L1142.29,693.781 L1148.62,693.563 L1154.97,674.589 L1154.9,663.045 L1135.07,663.17 L1135.14,674.699 Z M1141.56,695.945 C1141.12,695.945 1140.72,695.67 1140.56,695.251 L1133.07,675.271 C1133.03,675.154 1133,675.029 1133,674.903 L1132.92,662.116 C1132.92,661.832 1133.03,661.56 1133.23,661.356 C1133.43,661.154 1133.7,661.04 1133.99,661.038 L1155.96,660.899 C1156.24,660.855 1156.51,661.009 1156.71,661.208 C1156.91,661.407 1157.03,661.679 1157.03,661.962 L1157.11,674.753 C1157.11,674.871 1157.09,674.988 1157.06,675.1 L1150.41,694.946 C1150.27,695.369 1149.88,695.66 1149.43,695.675 L1141.6,695.944 C1141.58,695.945 1141.57,695.945 1141.56,695.945 L1141.56,695.945 Z" id="Fill-44" fill="#4C9C4E"></path>
                <path d="M1154.46,448.227 C1154.41,441.81 1150.43,436.639 1145.58,436.669861 L1141.22,436.697 C1136.35,436.728 1132.44,441.979 1132.49,448.417 L1132.54,454.624 L1154.51,454.624 L1154.46,448.227" id="Fill-45" fill="#E15C34"></path>
                <path d="M1133.53,453.624 L1153.5,453.624 L1153.46,448.235 C1153.41,442.399 1149.9,437.67 1145.62,437.67 C1145.61,437.67 1145.6,437.67 1145.59,437.67 L1141.23,437.697 C1139.56,437.708 1137.97,438.431 1136.63,439.79 C1134.64,441.815 1133.46,445.037 1133.49,448.409 L1133.53,453.624 Z M1154.51,455.624 L1132.54,455.624 C1131.99,455.624 1131.54,455.181 1131.54,454.632 L1131.49,448.425 C1131.46,444.476 1132.81,440.816 1135.21,438.385 C1136.93,436.641 1139.01,435.711 1141.21,435.697 L1145.57,435.67 C1145.59,435.67 1145.61,435.67 1145.62,435.67 C1151,435.67 1155.4,441.286 1155.46,448.219 L1155.51,454.616 C1155.51,454.882 1155.41,455.139 1155.22,455.328 C1155.03,455.518 1154.78,455.624 1154.51,455.624 L1154.51,455.624 Z" id="Fill-46" fill="#AE392B"></path>
                <path d="M1134.07,674.841 C1134.07,674.897 1156.04,674.759 1156.04,674.759 L1154.54,459.041 L1132.57,459.179 L1134.07,674.841" id="Fill-47" fill="#91C458"></path>
                <path d="M1134.97,673.952136 C1137.91,673.955 1147.83,673.908 1155.13,673.863 L1153.65,459.948 L1133.48,460.075 L1134.97,673.952136 Z M1138.62,675.75 C1133.71,675.75 1133.63,675.673 1133.44,675.48 C1133.27,675.313 1133.17,675.085 1133.17,674.847 L1131.67,459.185 C1131.67,458.946 1131.76,458.716 1131.93,458.545 C1132.1,458.375 1132.33,458.278 1132.57,458.277 L1154.54,458.139 C1155.04,458.139 1155.44,458.539 1155.45,459.035 L1156.94,674.754 C1156.95,674.993 1156.85,675.223 1156.68,675.394 C1156.52,675.563 1156.29,675.66 1156.05,675.661 C1147.2,675.717 1141.86,675.75 1138.62,675.75 L1138.62,675.75 Z" id="Fill-48" fill="#4C9C4E"></path>
                <polyline id="Fill-49" fill="#4B9C4D" points="1148.2 459.4 1149.63 674.909 1149.07 674.916 1147.63 459.407 1148.2 459.4"></polyline>
                <polyline id="Fill-50" fill="#4B9C4D" points="1140.65 459.452 1140.78 674.967 1140.21 674.968 1140.09 459.452 1140.65 459.452"></polyline>
                <polygon id="Fill-51" fill="#FFFFFE" points="1130.44 468.192 1156.61 468.192 1156.61 452.949 1130.44 452.949"></polygon>
                <path d="M1131.44,467.192 L1155.61,467.192 L1155.61,453.949 L1131.44,453.949 L1131.44,467.192 Z M1156.61,469.192 L1130.44,469.192 C1129.88,469.192 1129.44,468.745 1129.44,468.192 L1129.44,452.949 C1129.44,452.396 1129.88,451.949 1130.44,451.949 L1156.61,451.949 C1157.16,451.949 1157.61,452.396 1157.61,452.949 L1157.61,468.192 C1157.61,468.745 1157.16,469.192 1156.61,469.192 L1156.61,469.192 Z" id="Fill-52" fill="#4C9C4E"></path>
                <path d="M1340.25,222.695 C1340.25,303.575 1274.69,369.14 1193.81,369.14 C1112.93,369.14 1047.37,303.575 1047.37,222.695 C1047.37,141.818 1112.93,76.25 1193.81,76.25 C1274.69,76.25 1340.25,141.818 1340.25,222.695" id="Fill-53" fill="#FFFFFE"></path>
                <path d="M1193.81,77.319 C1113.65,77.319 1048.44,142.535 1048.44,222.695 C1048.44,302.855 1113.65,368.07 1193.81,368.07 C1273.97,368.07 1339.19,302.855 1339.19,222.695 C1339.19,142.535 1273.97,77.319 1193.81,77.319 Z M1193.81,370.209 C1112.47,370.209 1046.3,304.034 1046.3,222.695 C1046.3,141.355 1112.47,75.181 1193.81,75.181 C1275.15,75.181 1341.32,141.355 1341.32,222.695 C1341.32,304.034 1275.15,370.209 1193.81,370.209 L1193.81,370.209 Z" id="Fill-54" fill="#4C9C4E"></path>
                <path d="M1334.96,287.811 C1332.65,293.128 1326.46,295.568 1321.14,293.256 L1284.26,277.48 C1278.94,275.172 1276.5,268.986 1278.81,263.669 C1281.12,258.351 1287.31,255.916 1292.62,258.225 L1329.51,274.002 C1334.83,276.311 1337.27,282.494 1334.96,287.811" id="Fill-55" fill="#FFFFFE"></path>
                <path d="M1288.44,258.42 C1287.27,258.42 1286.1,258.64 1284.98,259.082 C1282.64,260.005 1280.8,261.786 1279.79,264.095 C1278.79,266.405 1278.75,268.967 1279.67,271.311 C1280.59,273.654 1282.37,275.497 1284.68,276.5 L1321.57,292.272 C1323.88,293.28 1326.44,293.323 1328.79,292.399 C1331.13,291.476 1332.97,289.695 1333.98,287.385 C1334.98,285.075 1335.02,282.513 1334.1,280.17 C1333.18,277.828 1331.4,275.985 1329.09,274.983 L1292.2,259.208 C1290.99,258.683 1289.72,258.42 1288.44,258.42 Z M1325.33,295.202 C1323.76,295.202 1322.2,294.879 1320.72,294.236 L1283.84,278.464 C1281,277.231 1278.81,274.97 1277.68,272.095 C1276.55,269.22 1276.6,266.077 1277.83,263.243 C1279.06,260.409 1281.32,258.225 1284.2,257.092 C1287.07,255.958 1290.22,256.014 1293.05,257.244 L1329.93,273.019 C1332.77,274.251 1334.96,276.512 1336.09,279.386 C1337.22,282.26 1337.17,285.404 1335.94,288.237 C1334.71,291.071 1332.45,293.256 1329.57,294.389 C1328.2,294.931 1326.76,295.202 1325.33,295.202 L1325.33,295.202 Z" id="Fill-56" fill="#4C9C4E"></path>
                <path d="M1299.7,222.695 C1299.7,281.176 1252.29,328.584 1193.81,328.584 C1135.33,328.584 1087.92,281.176 1087.92,222.695 C1087.92,164.216 1135.33,116.806 1193.81,116.806 C1252.29,116.806 1299.7,164.216 1299.7,222.695" id="Fill-57" fill="#FFFFFE"></path>
                <path d="M1193.81,117.875 C1136.01,117.875 1088.99,164.897 1088.99,222.695 C1088.99,280.492 1136.01,327.514 1193.81,327.514 C1251.61,327.514 1298.63,280.492 1298.63,222.695 C1298.63,164.897 1251.61,117.875 1193.81,117.875 Z M1193.81,329.653 C1134.83,329.653 1086.85,281.672 1086.85,222.695 C1086.85,163.718 1134.83,115.737 1193.81,115.737 C1252.79,115.737 1300.77,163.718 1300.77,222.695 C1300.77,281.672 1252.79,329.653 1193.81,329.653 L1193.81,329.653 Z" id="Fill-58" fill="#4C9C4E"></path>
                <path d="M1281.77,222.695 C1281.77,271.276 1242.39,310.658 1193.81,310.658 C1145.23,310.658 1105.85,271.276 1105.85,222.695 C1105.85,174.114 1145.23,134.732 1193.81,134.732 C1242.39,134.732 1281.77,174.114 1281.77,222.695" id="Fill-59" fill="#E15C34"></path>
                <path d="M1193.81,135.732 C1145.86,135.732 1106.85,174.743 1106.85,222.695 C1106.85,270.646 1145.86,309.658 1193.81,309.658 C1241.76,309.658 1280.77,270.646 1280.77,222.695 C1280.77,174.743 1241.76,135.732 1193.81,135.732 Z M1193.81,311.658 C1144.76,311.658 1104.85,271.75 1104.85,222.695 C1104.85,173.641 1144.76,133.732 1193.81,133.732 C1242.87,133.732 1282.77,173.641 1282.77,222.695 C1282.77,271.75 1242.87,311.658 1193.81,311.658 L1193.81,311.658 Z" id="Fill-60" fill="#AE392B"></path>
                <path d="M1201.76,284.997 C1188.29,284.997 1174.97,281.537 1162.91,274.749 C1147.92,266.316 1137.12,252.552 1132.49,235.993 C1127.85,219.434 1129.94,202.061 1138.38,187.076 C1145.23,174.901 1156.41,166.123 1169.86,162.358 C1183.32,158.594 1197.43,160.294 1209.61,167.145 C1230.1,178.675 1237.38,204.726 1225.86,225.217 C1216.41,241.992 1195.08,247.961 1178.31,238.521 C1171.62,234.758 1166.8,228.615 1164.73,221.225 C1162.66,213.835 1163.6,206.082 1167.36,199.394 C1173.79,187.964 1188.32,183.899 1199.75,190.331 C1204.37,192.928 1207.69,197.167 1209.12,202.267 C1210.55,207.367 1209.9,212.718 1207.31,217.333 C1202.8,225.34 1192.62,228.187 1184.61,223.682 C1181.33,221.832 1178.95,218.811 1177.94,215.176 C1176.92,211.542 1177.38,207.729 1179.23,204.439 C1180.31,202.515 1182.75,201.831 1184.68,202.916 C1186.6,203.999 1187.29,206.438 1186.2,208.363 C1185.4,209.79 1185.2,211.444 1185.64,213.021 C1186.08,214.597 1187.11,215.908 1188.54,216.71 C1192.7,219.051 1197.99,217.571 1200.33,213.41 C1201.88,210.657 1202.27,207.465 1201.42,204.422 C1200.57,201.38 1198.58,198.852 1195.83,197.302 C1188.24,193.034 1178.6,195.733 1174.33,203.317 C1171.62,208.143 1170.94,213.737 1172.43,219.069 C1173.93,224.402 1177.41,228.834 1182.23,231.549 C1195.16,238.827 1211.61,234.226 1218.88,221.293 C1228.25,204.647 1222.33,183.484 1205.68,174.117 C1195.37,168.313 1183.41,166.875 1172.02,170.063 C1160.62,173.251 1151.15,180.687 1145.35,190.999 C1137.96,204.122 1136.13,219.336 1140.19,233.837 C1144.25,248.338 1153.71,260.392 1166.83,267.777 C1183.47,277.138 1202.76,279.462 1221.14,274.317 C1239.53,269.173 1254.81,257.178 1264.17,240.542 C1265.25,238.617 1267.69,237.932 1269.62,239.017 C1271.54,240.1 1272.22,242.54 1271.14,244.464 C1260.73,262.964 1243.74,276.302 1223.3,282.021 C1216.18,284.012 1208.95,284.997 1201.76,284.997" id="Fill-61" fill="#AE392B"></path>
                <path d="M235.008,431.619 C206.043,461.569 158.099,462.377 128.135,433.408 C98.181,404.429 97.376,356.459 126.35,326.499 C155.326,296.538 203.277,295.741 233.245,324.724 C263.204,353.697 263.993,401.648 235.008,431.619 Z M179.01,279.355 C152.377,279.802 127.508,290.598 108.987,309.749 C90.476,328.889 80.526,354.097 80.975,380.724 C81.734,426.135 113.069,465.31 157.152,475.997 L170.609,478.784 L170.466,535.598 L195.096,533.442 L193.782,478.903 L207.448,475.136 C224.47,470.403 240.001,461.142 252.363,448.36 C270.877,429.216 280.829,404.025 280.392,377.402 C279.456,322.425 233.988,278.452 179.01,279.355 L179.01,279.355 Z" id="Fill-62" fill="#E15C34"></path>
                <path d="M180.72,304.497 C180.293,304.497 179.87,304.5 179.442,304.507 C159.497,304.839 140.897,312.896 127.069,327.195 C98.475,356.762 99.265,404.086 128.831,432.689 C143.287,446.665 161.991,453.618 180.667,453.62 C200.188,453.62 219.681,446.028 234.289,430.923 C262.891,401.349 262.11,354.031 232.55,325.442 C218.554,311.907 200.19,304.497 180.72,304.497 Z M180.667,455.619 C161.487,455.619 142.286,448.479 127.441,434.126 C97.082,404.757 96.27,356.164 125.632,325.804 C139.831,311.122 158.93,302.848 179.409,302.508 C199.894,302.182 219.254,309.802 233.94,324.005 C264.293,353.359 265.095,401.947 235.726,432.314 L235.008,431.619 L235.726,432.314 C220.728,447.822 200.709,455.619 180.667,455.619 Z M179.027,280.354 C152.662,280.797 128.043,291.483 109.706,310.444 C91.378,329.395 81.53,354.348 81.975,380.707 C82.726,425.658 113.737,464.443 157.387,475.025 L170.811,477.805 C171.277,477.901 171.61,478.311 171.609,478.787 L171.469,534.506 L194.074,532.527 L192.783,478.927 C192.771,478.468 193.074,478.061 193.517,477.939 L207.183,474.172 C224.028,469.488 239.403,460.322 251.644,447.665 C269.97,428.716 279.824,403.769 279.392,377.418 C278.465,323.004 233.43,279.44 179.027,280.354 Z M170.466,536.598 C170.217,536.598 169.975,536.504 169.79,536.334 C169.583,536.145 169.466,535.876 169.466,535.595 L169.607,479.598 L156.949,476.976 C112.381,466.172 80.742,426.602 79.975,380.74 C79.521,353.848 89.569,328.389 108.268,309.054 C126.977,289.709 152.094,278.806 178.994,278.354 C234.484,277.414 280.447,321.868 281.392,377.385 C281.832,404.27 271.779,429.723 253.082,449.056 C240.594,461.968 224.906,471.32 207.716,476.1 L194.801,479.659 L196.096,533.417 C196.108,533.945 195.709,534.392 195.184,534.438 L170.554,536.594 C170.524,536.598 170.495,536.598 170.466,536.598 L170.466,536.598 Z" id="Fill-63" fill="#AE392B"></path>
                <path d="M163.02,645.228 C163.031,645.41 163.038,651.729 167.587,656.223 C171.023,659.609 176.25,661.272 183.122,661.154 C190.413,661.022 196.061,658.958 199.876,655.013 C204.466,650.267 204.962,644.251 204.975,644.206 L202.808,512.475 L160.862,512.602 L163.02,645.228" id="Fill-64" fill="#61B2D7"></path>
                <path d="M164.02,645.207 C164.02,645.223 164.021,645.237 164.021,645.242 C164.049,646.28 164.384,651.654 168.29,655.511 C171.532,658.705 176.526,660.27 183.105,660.154 C190.135,660.026 195.536,658.063 199.157,654.317 C203.083,650.259 203.855,645.192 203.975,644.155 L201.825,513.477 L161.878,513.599 L164.02,645.207 Z M182.444,662.16 C175.638,662.16 170.406,660.403 166.886,656.935 C162.434,652.539 162.053,646.468 162.021,645.296 C162.021,645.292 162.02,645.247 162.02,645.244 L159.861826,512.618 C159.857,512.351 159.96,512.093 160.148,511.901 C160.335,511.71 160.591,511.603 160.859,511.602 L202.805,511.475 C202.806,511.475 202.807,511.475 202.808,511.475 C203.354,511.475 203.799,511.912 203.808,512.458 L205.976,644.189 C205.976,644.241 205.973,644.293 205.966,644.344 C205.837,645.479 204.992,651.162 200.595,655.708 C196.592,659.848 190.72,662.016 183.14,662.154 C182.906,662.158 182.674,662.16 182.444,662.16 L182.444,662.16 Z" id="Fill-65" fill="#2592C4"></path>
                <path d="M156.274,349.981 C164.43,357.869 164.647,370.875 156.759,379.032 C148.871,387.188 135.865,387.405 127.708,379.517 C119.552,371.629 119.334,358.623 127.223,350.466 C135.111,342.31 148.117,342.093 156.274,349.981" id="Fill-66" fill="#FFFFFE"></path>
                <path d="M141.994,345.283 C136.897,345.283 131.806,347.265 127.991,351.209 C124.375,354.949 122.431,359.873 122.518,365.075 C122.605,370.276 124.712,375.132 128.452,378.749 C136.171,386.213 148.524,386.007 155.991,378.289 C159.607,374.549 161.551,369.625 161.464,364.423 C161.377,359.222 159.269,354.366 155.53,350.749 C151.755,347.099 146.872,345.283 141.994,345.283 Z M141.987,386.353 C136.573,386.353 131.155,384.338 126.965,380.286 C122.815,376.272 120.476,370.883 120.379,365.11 C120.283,359.338 122.44,353.873 126.454,349.723 C134.739,341.156 148.449,340.926 157.017,349.212 C161.167,353.226 163.506,358.615 163.602,364.388 C163.699,370.16 161.541,375.625 157.528,379.775 C153.295,384.152 147.644,386.353 141.987,386.353 L141.987,386.353 Z" id="Fill-67" fill="#4C9C4E"></path>
                <path d="M307.913,166.392 C305.409,180.712 301.781,191.752 292.226,197.562 C278.246,206.069 243.301,205.096 229.181,197.042 C219.735,191.662 214.572,182.069 210.896,168.675 C209.118,162.206 206.478,151.345 208.895,143.526 C212.383,132.264 234.081,128.178 251.362,127.121 C269.634,126.006 299.946,126.507 306.834,137.28 C310.805,143.486 309.568,156.935 307.913,166.392 Z M164.64,168.293 C160.746,181.625 155.428,191.131 145.892,196.354 C131.64,204.174 96.684,204.57 82.848,195.834 C73.389,189.866 69.941,178.768 67.675,164.408 C66.177,154.926 65.165,141.459 69.238,135.319 C76.303,124.661 106.618,124.66 124.867,126.076 C142.127,127.419 163.756,131.863 167.055,143.181 C169.343,151.039 166.527,161.855 164.64,168.293 Z M329.786,125.561 C316.849,118.307 279.075,116.914 253.266,116.862 C237.287,116.83 221.453,119.904 206.654,125.928 C204.405,126.844 202.79,127.486 202.419,127.598 C198.203,128.864 194.029,129.404 189.887,129.444 L189.887,129.393 C189.291,129.416 188.692,129.43 188.094,129.433 C187.491,129.42 186.892,129.396 186.296,129.363 L186.296,129.414 C182.158,129.306 177.992,128.697 173.797,127.362 C173.424,127.243 171.786,126.56 169.512,125.592 C154.833,119.341 139.075,116.02 123.122,115.789 C97.325,115.415 59.52,116.186 46.434,123.235 C46.425,123.239 46.42,123.249 46.421,123.258 C46.519,130.25 46.219,134.576 46.2123469,134.659 C46.2123469,134.663 46.2123469,134.658 46.2123469,134.661 C46.297,134.719 51.621,138.477 53.612,142 C60.004,153.319 63.366,187.415 71.819,196.188 C82.37,207.129 106.561,208.256 126.405,207.217 C155.835,205.681 163.488,190.621 173.017,168.802 C176.232,161.434 178.75,151.635 186.123,150.377 L186.123,150.378 C186.749,150.286 187.347,150.241 187.923,150.238 C188.492,150.25 189.089,150.305 189.714,150.408 L189.714,150.406 C197.066,151.787 199.42,161.626 202.513,169.046 C211.683,191.019 219.084,206.203 248.488,208.225 C268.312,209.592 292.516,208.864 303.243,198.098 C311.841,189.467 315.492,155.429 322.073,144.216 C324.033,140.872 329.122,137.364 329.619,137.026 L329.786,125.561 L329.786,125.561 Z" id="Fill-68" fill="#E15C34"></path>
                <path d="M108.523,126.424 C91.046,126.424 74.701,128.889 70.071,135.872 C67.046,140.431 66.533,150.775 68.663,164.252 C70.919,178.551 74.285,189.25 83.382,194.988 C97.507,203.906 131.873,202.906 145.411,195.477 C153.961,190.794 159.425,182.58 163.68,168.013 C163.68,168.013 163.68,168.013 163.681,168.012 C165.74,160.986 168.231,150.796 166.095,143.46 C162.549,131.295 136.027,127.948 124.789,127.074 C119.471,126.661 113.941,126.424 108.523,126.424 Z M114.081,203.288 C101.803,203.288 89.519,201.229 82.314,196.679 C72.581,190.54 69.028,179.4 66.687,164.564 C65.391,156.357 63.889,141.572 68.404,134.766 C76.638,122.346 113.765,124.212 124.944,125.08 C139.418,126.206 164.26,130.018 168.015,142.901 C170.298,150.74 167.73,161.308 165.6,168.575 C161.241,183.497 155.311,192.335 146.373,197.231 C139.297,201.114 126.692,203.288 114.081,203.288 Z M264.521,127.712 C260.132,127.712 255.713,127.857 251.423,128.119 C240.173,128.807 213.6,131.716 209.851,143.822 C207.597,151.112 209.918,161.346 211.86,168.41 C215.877,183.045 221.205,191.348 229.676,196.172 C243.088,203.823 277.434,205.392 291.706,196.708 C300.893,191.121 304.435,180.479 306.928,166.219 C309.281,152.778 308.94,142.427 305.992,137.819 C301.206,130.335 283.159,127.712 264.521,127.712 Z M262.675,204.515 C249.472,204.515 236.03,202.1 228.685,197.91 C219.831,192.867 214.047,183.932 209.932,168.94 C207.923,161.635 205.532,151.021 207.94,143.23 C211.91,130.411 236.811,127.009 251.301,126.123 C262.498,125.44 299.649,124.187 307.677,136.742 C312.078,143.621 310.331,158.379 308.897,166.564 C306.311,181.36 302.575,192.439 292.746,198.417 C285.822,202.629 274.342,204.515 262.675,204.515 Z M187.918,149.238 C188.57,149.251 189.221,149.313 189.876,149.421 C196.567,150.676 199.414,158.18 201.926,164.801 C202.439,166.153 202.923,167.43 203.436,168.661 C212.883,191.298 220.116,205.272 248.557,207.228 C275.989,209.118 294.148,205.81 302.535,197.393 C307.212,192.697 310.437,179.88 313.557,167.486 C315.989,157.821 318.287,148.693 321.211,143.71 C323.009,140.642 327.201,137.51 328.626,136.499 L328.777,126.153 C318.644,120.881 291.9,117.94 253.264,117.862 C253.18,117.862 253.096,117.862 253.012,117.862 C237.159,117.862 221.69,120.887 207.031,126.855 C203.653,128.229 202.945,128.484 202.706,128.555 C198.621,129.783 194.431,130.4 189.897,130.444 C189.777,130.442 189.699,130.431 189.606,130.403 C189.104,130.42 188.601,130.43 188.101,130.433 C187.562,130.422 187.047,130.403 186.538,130.377 C186.451,130.403 186.36,130.416 186.269,130.414 C181.738,130.295 177.559,129.609 173.494,128.314 C173.251,128.237 172.534,127.966 169.12,126.512 C154.51,120.291 139.029,117.02 123.107,116.789 C84.473,116.225 57.665,118.733 47.428,123.845 C47.488,129.174 47.32,132.838 47.245,134.174 C48.625,135.2 52.731,138.408 54.483,141.508 C57.314,146.521 59.506,155.65 61.828,165.315 C64.827,177.799 67.927,190.708 72.54,195.494 C80.79,204.048 98.894,207.659 126.353,206.219 C154.821,204.733 162.283,190.88 172.101,168.402 C172.634,167.18 173.14,165.911 173.675,164.567 C176.296,157.989 179.267,150.533 185.954,149.391 C186.639,149.291 187.292,149.241 187.918,149.238 Z M262.497,209.738 C258.102,209.738 253.411,209.567 248.419,209.223 C219.397,207.227 211.367,192.858 201.59,169.431 C201.064,168.17 200.552,166.818 200.056,165.51 C197.617,159.082 195.096,152.434 189.529,151.389 C188.987,151.301 188.432,151.249 187.902,151.238 C187.392,151.241 186.834,151.284 186.268,151.367 C180.709,152.315 178.078,158.92 175.533,165.308 C175.015,166.607 174.48,167.95 173.934,169.202 C163.773,192.465 155.508,206.7 126.457,208.216 C98.392,209.685 79.769,205.872 71.1,196.882 C66.109,191.704 62.944,178.526 59.883,165.782 C57.595,156.257 55.435,147.26 52.742,142.492 C50.883,139.203 45.69,135.515 45.638,135.478 C45.352,135.276 45.191,134.937 45.213461,134.588 C45.219,134.545 45.518,130.201 45.42,123.272 C45.415,122.913 45.617,122.555 45.927,122.373 C58.934,115.366 95.091,114.382 123.137,114.789 C139.319,115.023 155.054,118.349 169.904,124.672 C173.143,126.051 173.923,126.352 174.101,126.409 C177.898,127.618 181.806,128.272 186.037,128.406 C186.138,128.374 186.244,128.358 186.351,128.365 C186.936,128.397 187.524,128.42 188.117,128.433 C188.675,128.43 189.263,128.416 189.849,128.394 C189.963,128.388 190.082,128.405 190.192,128.44 C194.414,128.374 198.323,127.784 202.131,126.64 C202.305,126.588 203.075,126.306 206.277,125.002 C221.255,118.905 237.057,115.86 253.268,115.862 C281.318,115.918 317.448,117.496 330.275,124.689 C330.595,124.868 330.791,125.208 330.786093,125.576 L330.619,137.041 C330.614,137.367 330.451,137.67 330.181,137.853 C328.193,139.206 324.429,142.174 322.936,144.722 C320.156,149.458 317.893,158.452 315.497,167.974 C312.311,180.631 309.018,193.719 303.952,198.804 C296.707,206.075 282.79,209.738 262.497,209.738 L262.497,209.738 Z" id="Fill-69" fill="#AE392B"></path>
                <path d="M306.855,137.288 C299.967,126.516 269.658,126.015 251.387,127.131 C234.107,128.186 212.407,132.271 208.922,143.535 C206.5,151.354 209.141,162.214 210.919,168.687 C214.597,182.075 219.756,191.669 229.203,197.052 C243.327,205.105 278.268,206.079 292.25,197.572 C301.803,191.759 305.435,180.722 307.937,166.396 C309.594,156.942 310.829,143.495 306.855,137.288" id="Fill-70" fill="#FFFFFE"></path>
                <path d="M124.853,126.069 C106.605,124.652 76.289,124.652 69.226,135.312 C65.156,141.45 66.167,154.915 67.662,164.397 C69.929,178.762 73.378,189.859 82.838,195.828 C96.672,204.564 131.627,204.169 145.881,196.348 C155.416,191.121 160.734,181.615 164.631,168.286 C166.517,161.846 169.334,151.028 167.044,143.174 C163.746,131.854 142.115,127.411 124.853,126.069" id="Fill-71" fill="#FFFFFE"></path>
                <path d="M494.703,856.723 L417.914,140.185 C417.45,135.85 419.515,132.041 422.504,131.72 L958.986,91.828 C961.975,91.508 964.8,94.792 965.265,99.128 L982.008,797.842 L494.703,856.723" id="Fill-72" fill="#FFFFFE"></path>
                <path d="M959.389,92.875 C959.292,92.875 959.196,92.875 959.1,92.891 L422.583,132.787 C420.248,133.038 418.581,136.375 418.977,140.071 L495.651,855.531 L980.916,796.896 L964.195,99.153 C963.821,95.693 961.656,92.875 959.389,92.875 Z M494.704,857.792 C494.463,857.792 494.228,857.711 494.038,857.56 C493.814,857.382 493.671,857.121 493.64,856.837 L416.851,140.299 C416.323,135.366 418.807,131.041 422.39,130.657 L958.906,90.761 C962.442,90.375 965.799,94.081 966.328,99.014 L983.077303,797.816 C983.09,798.367 982.683,798.837 982.136,798.903 L494.832,857.784 C494.789,857.792 494.746,857.792 494.704,857.792 L494.704,857.792 Z" id="Fill-73" fill="#4C9C4E"></path>
                <path d="M500.956,830.032 L430.782,152.737 C430.317,148.402 432.382,144.593 435.371,144.273 L971.853,104.38 C974.842,104.06 977.668,107.345 978.132,111.68 L994.876,810.394 L500.956,830.032" id="Fill-74" fill="#FFFFFE"></path>
                <path d="M972.257,105.428 C972.16,105.428 972.064,105.428 971.968,105.444 L435.451,145.339 C433.116,145.59 431.449,148.927 431.845,152.624 L501.916,828.924 L993.781,809.367 L977.063,111.706 C976.689,108.245 974.524,105.428 972.257,105.428 Z M500.955,831.102 C500.41,831.102 499.949,830.689 499.892,830.143 L429.718,152.848 C429.19,147.918 431.675,143.593 435.258,143.209 L971.774,103.314 C975.325,102.94 978.667,106.634 979.196,111.566 L995.945313,810.368 C995.959,810.952 995.502,811.438 994.919,811.462 L500.998,831.102 C500.983,831.102 500.969,831.102 500.955,831.102 L500.955,831.102 Z" id="Fill-75" fill="#4C9C4E"></path>
                <path d="M995.451,858.804 L995.451,138.163 C995.451,133.803 992.992,130.235 989.986,130.235 L408.901,130.235 C405.895,130.235 403.436,133.803 403.436,138.163 L403.436,858.804 L995.451,858.804" id="Fill-76" fill="#FFFFFE"></path>
                <path d="M404.505,857.734 L994.382,857.734 L994.382,138.163 C994.382,134.445 992.368,131.305 989.985,131.305 L408.901,131.305 C406.518,131.305 404.505,134.445 404.505,138.163 L404.505,857.734 Z M995.451,859.873 L403.436,859.873 C402.845,859.873 402.367,859.395 402.367,858.804 L402.367,138.163 C402.367,133.202 405.298,129.166 408.901,129.166 L989.985,129.166 C993.589,129.166 996.52,133.202 996.52,138.163 L996.52,858.804 C996.52,859.395 996.042,859.873 995.451,859.873 L995.451,859.873 Z" id="Fill-77" fill="#4C9C4E"></path>
                <polyline id="Fill-78" fill="#E15C34" points="514.298 213.787 514.082 213.787 509.865 254.117 493.539 254.117 485.105 178.43 496.674 178.43 502.945 238.114 503.162 238.114 508.784 178.43 520.245 178.43 526.083 238.547 526.3 238.547 532.355 178.43 542.735 178.43 534.301 254.117 518.515 254.117 514.298 213.787"></polyline>
                <path d="M559.598,236.709 C559.598,242.115 561.976,244.169 565.761,244.169 C569.545,244.169 571.924,242.115 571.924,236.709 L571.924,195.838 C571.924,190.432 569.545,188.377 565.761,188.377 C561.976,188.377 559.598,190.432 559.598,195.838 L559.598,236.709 Z M547.704,196.595 C547.704,184.485 554.083,177.565 565.761,177.565 C577.438,177.565 583.817,184.485 583.817,196.595 L583.817,235.952 C583.817,248.062 577.438,254.981 565.761,254.981 C554.083,254.981 547.704,248.062 547.704,235.952 L547.704,196.595 L547.704,196.595 Z" id="Fill-79" fill="#E15C34"></path>
                <path d="M603.385,189.242 L603.385,212.489 L608.034,212.489 C612.467,212.489 615.17,210.543 615.17,204.488 L615.17,197.027 C615.17,191.621 613.332,189.242 609.116,189.242 L603.385,189.242 Z M616.36,254.117 C615.711,252.17 615.279,250.981 615.279,244.818 L615.279,232.924 C615.279,225.896 612.9,223.301 607.494,223.301 L603.385,223.301 L603.385,254.117 L591.491,254.117 L591.491,178.43 L609.44,178.43 C621.766,178.43 627.064,184.161 627.064,195.838 L627.064,201.785 C627.064,209.57 624.577,214.543 619.279,217.03 L619.279,217.247 C625.226,219.733 627.172,225.356 627.172,233.249 L627.172,244.926 C627.172,248.603 627.28,251.306 628.47,254.117 L616.36,254.117 L616.36,254.117 Z" id="Fill-80" fill="#E15C34"></path>
                <polyline id="Fill-81" fill="#E15C34" points="634.954 178.43 646.848 178.43 646.848 243.304 666.418 243.304 666.418 254.117 634.954 254.117 634.954 178.43"></polyline>
                <path d="M683.498,189.242 L683.498,243.304 L690.202,243.304 C693.986,243.304 696.257,241.358 696.257,235.952 L696.257,196.595 C696.257,191.188 693.986,189.242 690.202,189.242 L683.498,189.242 Z M671.604,178.43 L690.418,178.43 C702.311,178.43 708.15,185.025 708.15,197.135 L708.15,235.411 C708.15,247.521 702.311,254.117 690.418,254.117 L671.604,254.117 L671.604,178.43 L671.604,178.43 Z" id="Fill-82" fill="#E15C34"></path>
                <polyline id="Fill-83" fill="#E15C34" points="743.287 199.298 743.07 199.298 743.07 254.117 732.366 254.117 732.366 178.43 747.287 178.43 759.289 223.734 759.505 223.734 759.505 178.43 770.101 178.43 770.101 254.117 757.884 254.117 743.287 199.298"></polyline>
                <polyline id="Fill-84" fill="#E15C34" points="790.532 210.327 806.858 210.327 806.858 221.139 790.532 221.139 790.532 243.304 811.075 243.304 811.075 254.117 778.639 254.117 778.639 178.43 811.075 178.43 811.075 189.242 790.532 189.242 790.532 210.327"></polyline>
                <polyline id="Fill-85" fill="#E15C34" points="844.916 213.787 844.699 213.787 840.482 254.117 824.156 254.117 815.723 178.43 827.292 178.43 833.562 238.114 833.779 238.114 839.401 178.43 850.862 178.43 856.701 238.547 856.918 238.547 862.973 178.43 873.352 178.43 864.919 254.117 849.133 254.117 844.916 213.787"></polyline>
                <path d="M895.297,177.565 C906.866,177.565 912.813,184.485 912.813,196.595 L912.813,198.974 L901.568,198.974 L901.568,195.838 C901.568,190.432 899.405,188.377 895.621,188.377 C891.837,188.377 889.675,190.432 889.675,195.838 C889.675,201.353 892.054,205.461 899.838,212.273 C909.785,221.031 912.921,227.302 912.921,235.952 C912.921,248.062 906.866,254.981 895.188,254.981 C883.512,254.981 877.457,248.062 877.457,235.952 L877.457,231.303 L888.701,231.303 L888.701,236.709 C888.701,242.115 891.08,244.061 894.864,244.061 C898.648,244.061 901.027,242.115 901.027,236.709 C901.027,231.194 898.648,227.086 890.864,220.274 C880.917,211.516 877.781,205.245 877.781,196.595 C877.781,184.485 883.727,177.565 895.297,177.565" id="Fill-86" fill="#E15C34"></path>
                <polygon id="Fill-87" fill="#DF7D55" points="772.975 590.955 954.664 590.955 954.664 535.387 772.975 535.387"></polygon>
                <polygon id="Fill-88" fill="#58BBC0" points="450.599 598.917 573.911 598.917 573.911 593.604 450.599 593.604"></polygon>
                <polygon id="Fill-89" fill="#58BBC0" points="450.599 623.76 551.01 623.76 551.01 618.447 450.599 618.447"></polygon>
                <polygon id="Fill-90" fill="#58BBC0" points="450.599 648.004 573.911 648.004 573.911 642.691 450.599 642.691"></polygon>
                <polygon id="Fill-91" fill="#58BBC0" points="610.023 598.917 733.335 598.917 733.335 593.604 610.023 593.604"></polygon>
                <polygon id="Fill-92" fill="#58BBC0" points="573.911 623.76 733.335 623.76 733.335 618.447 573.911 618.447"></polygon>
                <polygon id="Fill-93" fill="#58BBC0" points="610.023 648.004 733.335 648.004 733.335 642.691 610.023 642.691"></polygon>
                <polygon id="Fill-94" fill="#58BBC0" points="450.599 679.543 573.911 679.543 573.911 674.23 450.599 674.23"></polygon>
                <polygon id="Fill-95" fill="#58BBC0" points="450.599 704.386 551.01 704.386 551.01 699.073 450.599 699.073"></polygon>
                <polygon id="Fill-96" fill="#58BBC0" points="450.599 728.63 573.911 728.63 573.911 723.316 450.599 723.316"></polygon>
                <polygon id="Fill-97" fill="#58BBC0" points="773.706 622.79 954.728 622.79 954.728 617.477 773.706 617.477"></polygon>
                <polygon id="Fill-98" fill="#58BBC0" points="773.706 647.633 921.11 647.633 921.11 642.32 773.706 642.32"></polygon>
                <polygon id="Fill-99" fill="#58BBC0" points="773.706 671.877 954.728 671.877 954.728 666.563 773.706 666.563"></polygon>
                <polygon id="Fill-100" fill="#58BBC0" points="773.706 703.416 954.728 703.416 954.728 698.102 773.706 698.102"></polygon>
                <polygon id="Fill-101" fill="#58BBC0" points="773.706 728.259 921.11 728.259 921.11 722.945 773.706 722.945"></polygon>
                <polygon id="Fill-102" fill="#58BBC0" points="773.706 758.2 954.728 758.2 954.728 752.887 773.706 752.887"></polygon>
                <polygon id="Fill-103" fill="#58BBC0" points="773.706 783.043 921.11 783.043 921.11 777.73 773.706 777.73"></polygon>
                <polygon id="Fill-104" fill="#58BBC0" points="773.706 807.287 954.728 807.287 954.728 801.973 773.706 801.973"></polygon>
                <polygon id="Fill-105" fill="#58BBC0" points="773.706 838.826 954.728 838.826 954.728 833.512 773.706 833.512"></polygon>
                <polygon id="Fill-106" fill="#58BBC0" points="610.023 679.543 733.335 679.543 733.335 674.23 610.023 674.23"></polygon>
                <polygon id="Fill-107" fill="#58BBC0" points="573.911 704.386 733.335 704.386 733.335 699.073 573.911 699.073"></polygon>
                <polygon id="Fill-108" fill="#58BBC0" points="610.023 728.63 733.335 728.63 733.335 723.316 610.023 723.316"></polygon>
                <polygon id="Fill-109" fill="#DF7D55" points="766.29 318.596 924.559 318.596 924.559 302.302 766.29 302.302"></polygon>
                <polygon id="Fill-110" fill="#DF7D55" points="766.29 350.414 870.94 350.414 870.94 334.12 766.29 334.12"></polygon>
                <polygon id="Fill-111" fill="#58BBC0" points="768.615 388.953 888.598 388.953 888.598 384.171 768.615 384.171"></polygon>
                <polygon id="Fill-112" fill="#58BBC0" points="768.615 411.314 866.316 411.314 866.316 406.531 768.615 406.531"></polygon>
                <polygon id="Fill-113" fill="#58BBC0" points="768.615 433.135 888.598 433.135 888.598 428.353 768.615 428.353"></polygon>
                <polygon id="Fill-114" fill="#58BBC0" points="923.736 388.953 957.222 388.953 957.222 384.171 923.736 384.171"></polygon>
                <polygon id="Fill-115" fill="#58BBC0" points="888.598 411.314 934.94 411.314 934.94 406.531 888.598 406.531"></polygon>
                <polygon id="Fill-116" fill="#58BBC0" points="923.736 433.135 957.222 433.135 957.222 428.353 923.736 428.353"></polygon>
                <polygon id="Fill-117" fill="#58BBC0" points="768.615 460.74 888.598 460.74 888.598 455.957 768.615 455.957"></polygon>
                <polygon id="Fill-118" fill="#58BBC0" points="768.615 483.101 924.327 483.101 924.327 478.318 768.615 478.318"></polygon>
                <polygon id="Fill-119" fill="#58BBC0" points="768.615 504.922 835.362 504.922 835.362 500.14 768.615 500.14"></polygon>
                <polygon id="Fill-120" fill="#58BBC0" points="923.736 460.74 957.222 460.74 957.222 455.957 923.736 455.957"></polygon>
                <polygon id="Fill-121" fill="#58BBC0" points="945.884 483.101 954.252 483.101 954.252 478.318 945.884 478.318"></polygon>
                <polygon id="Fill-122" fill="#58BBC0" points="857.644 504.556 957.222 504.556 957.222 499.944 857.644 499.944"></polygon>
                <polygon id="Fill-123" fill="#58BBC0" points="447.405 169.763 951.482 169.763 951.482 165.181 447.405 165.181"></polygon>
                <polygon id="Fill-124" fill="#58BBC0" points="447.405 267.931 951.482 267.931 951.482 263.349 447.405 263.349"></polygon>
                <polygon id="Fill-125" fill="#DF7D55" points="450.599 575.542 561.269 575.542 561.269 554.198 450.599 554.198"></polygon>
                <polygon id="Fill-126" fill="#93CFCA" points="449.112 525.778 733.887 525.778 733.887 304.129 449.112 304.129"></polygon>
                <polygon id="Fill-127" fill="#93CFCA" points="449.112 843.717 733.887 843.717 733.887 753.408 449.112 753.408"></polygon>
                <polygon id="Fill-128" fill="#60C0C6" points="463.32 510.248 719.679 510.248 719.679 319.659 463.32 319.659"></polygon>
                <path d="M948.214,787.944 C969.676,823.314 1001.43,875.809 1022.11,910 L1112.8,910 L1156.14,888.891 C1156.14,888.891 1057.07,756.555 1052.42,749.982 C1049.25,745.49 1045.31,740.866 1043.45,732.102 C1042.59,728.043 1042.18,723.102 1042.5,716.866 C1043.52,697.163 1052.62,580.92 1052.63,575.009 C1052.64,569.098 1052.98,563.187 1048,556.285 C1043.02,549.383 995.221,480.607 995.221,480.607 L995.051,636.358 C991.846,623.218 975.265,607.582 975.287,587.227 L975.539,517.993 C975.557,505.346 971.836,497.906 954.301,497.9 C937.069,497.895 933.18,505.314 933.162,517.892 L932.927,582.465 L932.569,582.425 C932.569,582.425 932.726,587.238 932.569,595.778 C932.152,618.439 905.226,629.345 905.197949,673.35 C905.165,724.256 921.072,743.951 925.388,750.524 C926.55,752.294 935.608,767.169 948.214,787.944" id="Fill-129" fill="#EFBF81"></path>
                <path d="M1022.67,909 L1112.57,909 L1154.62,888.521 C1145.59,876.456 1056,756.771 1051.61,750.56 C1051.24,750.035 1050.86,749.51 1050.47,748.976 C1047.51,744.887 1044.15,740.252 1042.47,732.309 C1041.51,727.784 1041.2,722.716 1041.5,716.813 C1042.02,706.866 1044.55,672.801 1047.01,639.857 C1049.39,607.996 1051.63,577.901 1051.63,575.008 L1051.63,573.96 C1051.66,568.376 1051.68,563.102 1047.19,556.87 C1042.81,550.81 1005.01,496.441 996.218,483.792 L996.042,644.639 L994.079,636.595 C992.894,631.738 989.726,626.356 986.372,620.659 C980.7,611.026 974.272,600.108 974.287,587.226 L974.539,517.989 C974.55,510.846 973.271,506.373 970.394,503.492 C967.312,500.404 962.049,498.902 954.302,498.9 C954.295,498.9 954.287,498.9 954.28,498.9 C937.475,498.9 934.179,505.864 934.162,517.893 L933.923,583.583 L933.596,583.546 C933.632,585.462 933.681,589.702 933.569,595.797 C933.392,605.47 928.593,612.956 923.038,621.624 C915.152,633.928 906.215,647.872 906.197948,673.351 C906.167,720.592 920.007,740.855 925.217,748.483 C925.598,749.042 925.936,749.537 926.224,749.975 C927.293,751.603 934.766,763.853 949.068,787.425 C965.569,814.618 990.333,855.52 1022.67,909 Z M1113.03,911 L1021.55,911 L1021.26,910.518 C988.77,856.802 963.908,815.736 947.359,788.462 C933.267,765.237 925.594,752.658 924.552,751.072 C924.27,750.644 923.938,750.158 923.565,749.611 C918.26,741.844 904.167,721.209 904.197949,673.349 C904.215,647.286 913.718,632.459 921.353,620.545 C926.745,612.132 931.402,604.867 931.569,595.76 C931.724,587.349 931.571,582.505 931.57,582.457 L931.532,581.303 L931.931,581.347 L932.162,517.888 C932.18,505.292 935.951,496.9 954.281,496.9 C954.289,496.9 954.294,496.9 954.302,496.9 C962.723,496.902 968.286,498.548 971.81,502.079 C975.092,505.366 976.551,510.274 976.539,517.994 L976.287,587.23 C976.273,599.564 982.554,610.232 988.095,619.645 C990.328,623.437 992.48,627.093 994.057,630.601 L994.226,477.42 L996.043,480.036 C996.52,480.724 1043.89,548.885 1048.81,555.7 C1053.68,562.459 1053.66,568.311 1053.63,573.969 L1053.63,575.01 C1053.63,577.977 1051.38,608.106 1049,640.006 C1046.55,672.938 1044.01,706.992 1043.5,716.917 C1043.2,722.643 1043.51,727.542 1044.43,731.895 C1046.02,739.423 1049.25,743.875 1052.09,747.803 C1052.48,748.344 1052.87,748.875 1053.24,749.405 C1057.82,755.892 1155.95,886.968 1156.94,888.291 L1157.67,889.26 L1113.03,911 L1113.03,911 Z" id="Fill-130" fill="#E38455"></path>
                <polyline id="Fill-131" fill="#FFFFFE" points="1071.96 751.323 1099.55 789.972 976.532 863.232 951.803 823.107 1071.96 751.323"></polyline>
                <path d="M953.063,823.415 L976.837,861.991 L1098.24,789.696 L1071.7,752.535 L953.063,823.415 Z M976.227,864.474 L950.544,822.798 L951.337,822.325 L1072.21,750.111 L1100.87,790.249 L976.227,864.474 L976.227,864.474 Z" id="Fill-132" fill="#BEC0BD"></path>
                <polyline id="Fill-133" fill="#E15C34" points="1231.17 980 1104.45 787.246 967.976 868.464 1030.67 980 1231.17 980"></polyline>
                <path d="M1031.26,979 L1229.32,979 L1104.13,788.595 L969.325,868.824 L1031.26,979 Z M1231.17,981 L1030.67,981 C1030.31,981 1029.98,980.805 1029.8,980.49 L967.103,868.954 C966.838,868.48 966.998,867.882 967.464,867.604 L1103.93,786.387 C1104.39,786.113 1104.99,786.25 1105.28,786.696 L1232.01,979.45 C1232.21,979.758 1232.22,980.151 1232.05,980.475 C1231.88,980.798 1231.54,981 1231.17,981 L1231.17,981 Z" id="Fill-134" fill="#AE392B"></path>
                <path d="M981.272,837.735 C983.924,843.046 990.434,845.228 995.812,842.608 C1001.19,839.989 1003.4,833.56 1000.75,828.25 C998.094,822.939 991.585,820.757 986.207,823.376 C980.829,825.996 978.62,832.424 981.272,837.735" id="Fill-135" fill="#959897"></path>
                <path d="M346.269,749.982 C341.625,756.555 242.549,888.891 242.549,888.891 L285.889,910 L376.581,910 C396.845,876.492 427.754,825.402 449.182,790.081 C462.461,768.193 472.102,752.355 473.305,750.524 C477.62,743.951 493.528,724.256 493.495051,673.35 C493.466,629.345 466.54,618.439 466.124,595.778 C465.967,587.238 466.124,582.425 466.124,582.425 L465.766,582.465 L465.53,517.892 C465.513,505.314 461.623,497.895 444.391,497.9 C426.856,497.906 423.135,505.346 423.153,517.993 L423.405,587.227 C423.427,607.582 406.847,623.218 403.641,636.358 L403.471,480.607 C403.471,480.607 355.677,549.383 350.696,556.285 C345.716,563.187 346.055,569.098 346.061,575.009 C346.068,580.92 355.173,697.163 356.192,716.866 C356.518,723.154 356.093,728.123 355.219,732.201 C353.354,740.898 349.43,745.507 346.269,749.982" id="Fill-136" fill="#EFBF81"></path>
                <path d="M286.119,909 L376.017,909 C407.505,856.934 431.831,816.754 448.327,789.563 C463.252,764.96 471.375,751.641 472.469,749.975 C472.756,749.537 473.094,749.042 473.475,748.484 C478.685,740.856 492.525,720.594 492.495049,673.351 C492.478,647.873 483.54,633.928 475.655,621.624 C470.1,612.956 465.302,605.47 465.123,595.797 C465.012,589.702 465.06,585.462 465.097,583.546 L464.769,583.582 L464.53,517.896 C464.514,505.865 461.215,498.9 444.412,498.9 C444.405,498.9 444.398,498.9 444.392,498.9 C436.644,498.902 431.38,500.404 428.298,503.492 C425.421,506.373 424.143,510.845 424.153,517.992 L424.405,587.223 C424.419,600.108 417.992,611.026 412.32,620.659 C408.966,626.356 405.798,631.738 404.613,636.595 L402.651,644.638 L402.475,483.792 C393.683,496.441 355.881,550.81 351.507,556.87 C347.01,563.102 347.033,568.377 347.058,573.962 L347.061,575.008 C347.064,577.9 349.307,607.983 351.68,639.832 C354.137,672.787 356.676,706.863 357.191,716.813 C357.498,722.753 357.173,727.855 356.196,732.411 C354.506,740.295 351.165,744.911 348.217,748.984 C347.832,749.515 347.454,750.038 347.086,750.56 C342.697,756.771 253.107,876.456 244.075,888.521 L286.119,909 Z M377.145,911 L285.658,911 L285.451,910.899 L241.024,889.26 L241.749,888.291 C242.739,886.968 340.869,755.892 345.452,749.405 C345.825,748.878 346.208,748.349 346.597,747.812 C349.429,743.898 352.639,739.464 354.241,731.991 C355.18,727.61 355.492,722.679 355.194,716.917 C354.68,706.989 352.141,672.925 349.686,639.98 C347.309,608.094 345.064,577.976 345.061,575.01 L345.058,573.971 C345.033,568.312 345.007,562.46 349.885,555.7 C354.804,548.885 402.172,480.724 402.65,480.036 L404.468,477.42 L404.635,630.601 C406.212,627.093 408.364,623.437 410.597,619.645 C416.138,610.232 422.418,599.564 422.405,587.228 L422.153,517.997 C422.142,510.274 423.601,505.366 426.882,502.079 C430.407,498.548 435.97,496.902 444.391,496.9 C444.397,496.9 444.404,496.9 444.411,496.9 C462.744,496.9 466.513,505.291 466.53,517.891 L466.762,581.348 L467.161,581.303 L467.123,582.457 C467.122,582.505 466.969,587.349 467.123,595.76 C467.29,604.867 471.947,612.133 477.339,620.545 C484.975,632.459 494.477,647.286 494.495051,673.349 C494.526,721.211 480.432,741.845 475.126,749.612 C474.753,750.159 474.422,750.644 474.141,751.072 C473.06,752.719 464.95,766.018 450.037,790.6 C433.49,817.874 409.064,858.22 377.436,910.518 L377.145,911 L377.145,911 Z" id="Fill-137" fill="#E38455"></path>
                <polyline id="Fill-138" fill="#FFFFFE" points="327.737 752.323 300.142 790.972 423.161 864.232 447.889 824.107 327.737 752.323"></polyline>
                <path d="M301.458,790.696 L422.856,862.991 L446.63,824.415 L327.991,753.535 L301.458,790.696 Z M423.465,865.474 L298.826,791.249 L327.484,751.111 L328.204,751.542 L449.148,823.798 L423.465,865.474 L423.465,865.474 Z" id="Fill-139" fill="#BEC0BD"></path>
                <polyline id="Fill-140" fill="#E15C34" points="360.077 980 430.716 868.464 294.247 787.246 169.682 980 360.077 980"></polyline>
                <path d="M171.519,979 L359.527,979 L429.322,868.798 L294.564,788.599 L171.519,979 Z M360.077,981 L169.682,981 C169.316,981 168.979,980.8 168.804,980.479 C168.629,980.156 168.643,979.765 168.842,979.457 L293.408,786.703 C293.699,786.252 294.296,786.108 294.759,786.387 L431.228,867.604 C431.46,867.742 431.626,867.969 431.689,868.231 C431.752,868.494 431.706,868.771 431.561,868.999 L360.922,980.535 C360.739,980.824 360.42,981 360.077,981 L360.077,981 Z" id="Fill-141" fill="#AE392B"></path>
                <path d="M417.42,837.735 C414.768,843.046 408.258,845.228 402.88,842.608 C397.503,839.989 395.293,833.56 397.946,828.25 C400.598,822.939 407.108,820.757 412.486,823.376 C417.863,825.996 420.073,832.424 417.42,837.735" id="Fill-142" fill="#959897"></path>
            </g>
        </g>
    </g>
</svg>